<?xml version="1.0" encoding="UTF-8" standalone="no"?>
<!-- Created with Inkscape (http://www.inkscape.org/) -->

<svg
   version="1.1"
   id="svg2"
   width="720"
   height="106.6"
   viewBox="0 0 720 106.6"
   sodipodi:docname="trailforks-logo-horiz_CMYK_Dark.eps"
   xmlns:inkscape="http://www.inkscape.org/namespaces/inkscape"
   xmlns:sodipodi="http://sodipodi.sourceforge.net/DTD/sodipodi-0.dtd"
   xmlns="http://www.w3.org/2000/svg"
   xmlns:svg="http://www.w3.org/2000/svg">
  <defs
     id="defs6" />
  <sodipodi:namedview
     id="namedview4"
     pagecolor="#ffffff"
     bordercolor="#000000"
     borderopacity="0.25"
     inkscape:showpageshadow="2"
     inkscape:pageopacity="0.0"
     inkscape:pagecheckerboard="0"
     inkscape:deskcolor="#d1d1d1" />
  <g
     id="g8"
     inkscape:groupmode="layer"
     inkscape:label="ink_ext_XXXXXX"
     transform="matrix(1.3333333,0,0,-1.3333333,0,106.6)">
    <g
       id="g10"
       transform="scale(0.1)">
      <path
         d="M 0,16.1055 450.438,796.277 900.879,16.1055 Z"
         style="fill:#fccb06;fill-opacity:1;fill-rule:nonzero;stroke:none"
         id="path12" />
      <path
         d="M 450.441,301.527 384.66,254.184 V 79.8086 h -82.73 c 0,0 0,153.8084 0,209.7114 l 100.023,71.98 v 220.887 h 96.969 V 361.5 l 100.027,-71.98 c 0,-55.903 0,-209.7114 0,-209.7114 H 516.223 V 254.184 l -65.782,47.343"
         style="fill:#000000;fill-opacity:1;fill-rule:nonzero;stroke:none"
         id="path14" />
      <path
         d="M 869.297,629.844 H 987.305 V 16.1055 H 1186.82 V 92.1992 629.844 h 118.49 V 783.391 H 869.297 V 629.844"
         style="fill:#302d2e;fill-opacity:1;fill-rule:nonzero;stroke:none"
         id="path16" />
      <path
         d="m 1597.48,490.742 c -9.01,-6.156 -24.73,-9.234 -47.16,-9.234 v 170.609 c 23.06,0 38.94,-3.793 47.63,-11.371 8.69,-7.582 13.03,-23.547 13.03,-47.871 v -42.184 c 0,-33.804 -4.49,-53.785 -13.5,-59.949 z m 176.53,-37.203 c 14.85,20.543 22.28,60.664 22.28,120.383 0,65.398 -10.51,113.023 -31.52,142.883 -21.01,29.859 -48.18,48.418 -81.51,55.683 -33.34,7.266 -97.08,10.903 -191.23,10.903 H 1350.8 V 139.824 16.1055 h 199.52 V 197.758 362.063 c 27.49,0 44.47,-4.895 50.95,-14.668 6.47,-9.813 9.71,-35.243 9.71,-76.301 V 215.379 16.1055 h 185.31 V 218.48 c 0,19.278 -0.19,35.958 -0.5,50.567 -0.71,32.308 -2.2,53.461 -4.48,62.933 -3.31,13.735 -11.77,28.821 -25.35,45.254 -13.6,16.442 -40.13,29.547 -79.62,39.336 43.6,4.106 72.82,16.426 87.67,36.969"
         style="fill:#302d2e;fill-opacity:1;fill-rule:nonzero;stroke:none"
         id="path18" />
      <path
         d="m 2044,290.039 c 1.19,15.414 2.78,32.973 4.75,52.469 6.67,66.359 17.84,156.215 33.55,269.797 7.63,-96.043 15.24,-180.508 22.83,-253.43 2.52,-24.223 5.05,-47.16 7.56,-68.836 z m 174.43,493.352 H 1930.05 L 1864.47,288.992 1828.28,16.1055 h 206.28 l 11.98,137.9105 h 71.38 l 10.71,-137.9105 h 203.91 l -58.29,391.8865 -55.82,375.399"
         style="fill:#302d2e;fill-opacity:1;fill-rule:nonzero;stroke:none"
         id="path20" />
      <path
         d="M 2366.42,434.754 V 16.1055 h 199.51 V 783.391 H 2366.42 V 434.754"
         style="fill:#302d2e;fill-opacity:1;fill-rule:nonzero;stroke:none"
         id="path22" />
      <path
         d="M 3015.22,623.164 V 16.1055 h 199.52 V 338.375 h 123.22 v 145.969 h -123.22 v 86.758 58.742 h 138.38 v 153.547 h -337.9 V 623.164"
         style="fill:#302d2e;fill-opacity:1;fill-rule:nonzero;stroke:none"
         id="path24" />
      <path
         d="m 3657.86,233.641 c 0,-45.196 -1.9,-73.77 -5.68,-85.782 -3.8,-12.011 -12.49,-18.004 -26.07,-18.004 -13.26,0 -21.73,5.215 -25.35,15.622 -3.64,10.441 -5.46,37.933 -5.46,82.488 v 243.836 114.437 c 0,39.492 2.76,63.274 8.3,71.328 5.52,8.059 13.51,12.082 23.94,12.082 12.32,0 20.44,-4.976 24.4,-14.929 3.94,-9.949 5.92,-32.778 5.92,-68.481 V 455.477 Z m 158.29,485.293 c -19.9,26.855 -46.2,46.996 -78.9,60.429 -32.7,13.43 -69.6,20.141 -110.67,20.141 -43.29,0 -81.2,-7.102 -113.74,-21.32 -32.54,-14.219 -58.38,-34.598 -77.48,-61.145 -19.12,-26.531 -30.49,-55.844 -34.13,-87.906 -2.63,-23.246 -4.3,-58.485 -5.02,-105.383 -0.28,-17.805 -0.42,-37.145 -0.42,-58.359 V 334.109 c 0,-78.992 1.89,-134.281 5.68,-165.867 3.8,-31.601 15.63,-60.832 35.54,-87.6834 19.91,-26.8555 46.21,-46.9922 78.91,-60.4102 32.7,-13.42574 69.59,-20.14449375 110.66,-20.14449375 43.29,0 81.2,7.09765375 113.74,21.31639375 32.55,14.2227 58.37,34.5899 77.5,61.1445 19.1,26.5272 30.49,55.8322 34.12,87.9182 3.62,32.051 5.46,86.64 5.46,163.726 v 69.309 61.973 c 0,78.984 -1.92,134.277 -5.7,165.867 -3.78,31.594 -15.64,60.82 -35.55,87.676"
         style="fill:#302d2e;fill-opacity:1;fill-rule:nonzero;stroke:none"
         id="path26" />
      <path
         d="m 4178.47,490.742 c -9.01,-6.156 -24.72,-9.234 -47.17,-9.234 v 170.609 c 23.06,0 38.94,-3.793 47.64,-11.371 8.68,-7.582 13.04,-23.547 13.04,-47.871 v -42.184 c 0,-33.804 -4.52,-53.785 -13.51,-59.949 z M 4355,453.539 c 14.85,20.543 22.27,60.664 22.27,120.383 0,65.398 -10.51,113.023 -31.51,142.883 -21.02,29.859 -48.2,48.418 -81.52,55.683 -33.34,7.266 -97.07,10.903 -191.23,10.903 H 3931.79 V 384 16.1055 h 199.51 v 315.8355 30.122 c 27.49,0 44.47,-4.895 50.95,-14.668 3.59,-5.43 6.14,-15.793 7.73,-30.754 1.31,-12.125 2,-27.184 2,-45.547 V 16.1055 h 185.29 V 218.48 c 0,18.774 -0.16,35.063 -0.48,49.411 -0.69,32.961 -2.18,54.519 -4.48,64.089 -3.33,13.735 -11.79,28.821 -25.37,45.254 -13.58,16.442 -40.13,29.547 -79.62,39.336 43.6,4.106 72.82,16.426 87.68,36.969"
         style="fill:#302d2e;fill-opacity:1;fill-rule:nonzero;stroke:none"
         id="path28" />
      <path
         d="m 4815.65,436.953 114.46,346.438 H 4742.92 L 4654.04,485.297 V 783.391 H 4454.53 V 247.602 16.1055 h 199.51 V 195.543 345.02 l 39.24,-159.704 41.57,-169.2105 H 4941 l -33.77,113.3785 -91.58,307.469"
         style="fill:#302d2e;fill-opacity:1;fill-rule:nonzero;stroke:none"
         id="path30" />
      <path
         d="m 5365.4,375.813 c -23.07,33.816 -79,77.066 -167.83,129.785 -30.96,18.3 -49.76,33.949 -56.37,46.91 -6.94,12.965 -10.38,32.25 -10.38,57.863 0,19.914 3.06,34.77 9.23,44.574 6.16,9.805 15.24,14.703 27.25,14.703 11.06,0 18.97,-3.632 23.7,-10.906 4.75,-7.265 7.11,-24.156 7.11,-50.699 v -56.871 h 185.3 V 581.5 c 0,60.973 -5.92,104.184 -17.77,129.621 -11.84,25.426 -36.02,46.52 -72.51,63.274 -36.49,16.738 -80.64,25.109 -132.45,25.109 -47.41,0 -87.85,-7.664 -121.34,-22.981 -33.48,-15.332 -57.74,-36.574 -72.74,-63.746 -15.01,-27.172 -22.52,-70.14 -22.52,-128.906 0,-40.758 5.29,-74.254 15.88,-100.473 10.58,-26.226 23.93,-46.769 40.05,-61.605 16.11,-14.855 48.96,-38.715 98.57,-71.57 49.6,-32.543 80.72,-55.762 93.36,-69.657 12.32,-13.921 18.5,-43.453 18.5,-88.625 0,-20.531 -3.26,-36.023 -9.72,-46.464 -6.49,-10.407 -16.36,-15.622 -29.62,-15.622 -13.28,0 -22.53,4.106 -27.73,12.321 -5.21,8.222 -7.82,26.703 -7.82,55.445 v 93.367 h -185.31 v -50.234 c 0,-53.613 5.16,-95.664 15.31,-126.484 0.74,-2.247 1.44,-4.575 2.23,-6.68 11.67,-31.2892 36.41,-57.0392 74.16,-77.2658 37.75,-20.2148 83.35,-30.32029375 136.74,-30.32029375 48.02,0 90.14,8.56250375 126.48,25.65239375 0.49,0.2343 0.99,0.4101 1.47,0.6562 36.65,17.5273 61.38,39.2383 74.19,65.1367 12.78,25.9138 19.18,66.1988 19.18,120.8668 0,75.192 -11.54,129.688 -34.6,163.497"
         style="fill:#302d2e;fill-opacity:1;fill-rule:nonzero;stroke:none"
         id="path32" />
      <path
         d="M 2845.55,573.895 V 783.391 H 2646.04 V 16.1055 h 320.84 V 169.66 h -121.33 v 404.235"
         style="fill:#302d2e;fill-opacity:1;fill-rule:nonzero;stroke:none"
         id="path34" />
    </g>
  </g>
</svg>
